<?xml version="1.0" encoding="utf-8"?><svg  xmlns="http://www.w3.org/2000/svg" xmlns:xlink="http://www.w3.org/1999/xlink"><style>:root>svg{display:none}:root>svg:target{display:block}</style><svg fill="none" viewBox="0 0 35 35" id="account" xmlns="http://www.w3.org/2000/svg"><path d="M4.375 7.292v20.416a2.916 2.916 0 002.917 2.917h20.416a2.925 2.925 0 002.917-2.917V7.292a2.925 2.925 0 00-2.917-2.917H7.292a2.916 2.916 0 00-2.917 2.917zm17.5 5.833A4.37 4.37 0 0117.5 17.5a4.37 4.37 0 01-4.375-4.375A4.37 4.37 0 0117.5 8.75a4.37 4.37 0 014.375 4.375zM8.75 24.792c0-2.917 5.833-4.521 8.75-4.521s8.75 1.604 8.75 4.52v1.459H8.75v-1.458z" fill="#2962EF"/></svg><svg fill="none" viewBox="0 0 35 35" id="account-tree" xmlns="http://www.w3.org/2000/svg"><path d="M32.083 16.042V4.375H21.875V8.75h-8.75V4.375H2.917v11.667h10.208v-4.375h2.917V26.25h5.833v4.375h10.208V18.958H21.875v4.375h-2.917V11.667h2.917v4.375h10.208z" fill="#EA5E5D"/></svg><svg fill="none" viewBox="0 0 18 18" id="arrow" xmlns="http://www.w3.org/2000/svg"><path d="M6.75 3.75v1.5h4.942L3 13.943 4.057 15l8.693-8.692v4.942h1.5v-7.5h-7.5z" fill="#fff"/></svg><svg fill="none" viewBox="0 0 24 18" id="discord" xmlns="http://www.w3.org/2000/svg"><path d="M19.67 1.468A19.162 19.162 0 0014.94.001a.072.072 0 00-.075.036c-.204.363-.43.837-.59 1.21a17.69 17.69 0 00-5.311 0C8.805.867 8.57.4 8.366.037A.075.075 0 008.29.001C6.63.287 5.042.788 3.56 1.468a.068.068 0 00-.031.027C.516 5.995-.31 10.385.096 14.72a.08.08 0 00.03.054 19.268 19.268 0 005.802 2.933c.03.01.063-.002.082-.027.447-.61.845-1.254 1.187-1.93.02-.04 0-.087-.04-.103a12.69 12.69 0 01-1.813-.864.074.074 0 01-.007-.123c.122-.092.243-.187.36-.282a.072.072 0 01.075-.01c3.803 1.736 7.92 1.736 11.677 0a.071.071 0 01.076.009c.117.095.239.191.361.283a.074.074 0 01-.006.123c-.579.339-1.18.624-1.813.863a.074.074 0 00-.04.104c.35.675.747 1.319 1.186 1.93a.074.074 0 00.082.027 19.203 19.203 0 005.811-2.933.075.075 0 00.03-.053c.485-5.013-.811-9.367-3.435-13.226a.06.06 0 00-.03-.028zM7.766 12.081c-1.145 0-2.088-1.051-2.088-2.342 0-1.291.925-2.342 2.088-2.342 1.172 0 2.106 1.06 2.088 2.342 0 1.29-.925 2.342-2.088 2.342zm7.72 0c-1.144 0-2.087-1.051-2.087-2.342 0-1.291.925-2.342 2.088-2.342 1.172 0 2.106 1.06 2.088 2.342 0 1.29-.916 2.342-2.088 2.342z" fill="currentColor"/></svg><svg fill="none" viewBox="0 0 17 17" id="linkedin" xmlns="http://www.w3.org/2000/svg"><path d="M14.038 9.693V13.6a.181.181 0 01-.178.178h-2.016a.181.181 0 01-.178-.178V9.967c0-.96-.343-1.618-1.206-1.618-.658 0-1.042.439-1.22.864-.069.15-.083.37-.083.576v3.81a.182.182 0 01-.178.18H6.977a.182.182 0 01-.178-.18c0-.972.028-5.675 0-6.772 0-.096.082-.178.178-.178h2.016c.096 0 .178.082.178.178v.837c0 .013-.014.013-.014.027h.014v-.027c.315-.48.877-1.18 2.139-1.18 1.563 0 2.728 1.029 2.728 3.209zM3.29 13.792h2.015a.182.182 0 00.178-.178V6.827a.181.181 0 00-.178-.178H3.29a.181.181 0 00-.179.178v6.787c.014.096.083.178.179.178zM4.236 5.758a1.275 1.275 0 100-2.55 1.275 1.275 0 000 2.55z" fill="currentColor"/></svg><svg fill="none" viewBox="0 0 18 18" id="paper-airplane" xmlns="http://www.w3.org/2000/svg"><path d="M1.508 15.75L17.25 9 1.508 2.25 1.5 7.5 12.75 9 1.5 10.5l.008 5.25z" fill="#fff"/></svg><svg fill="none" viewBox="0 0 35 35" id="people" xmlns="http://www.w3.org/2000/svg"><path fill-rule="evenodd" clip-rule="evenodd" d="M24.31 19.148c1.998 1.356 3.399 3.194 3.399 5.644v4.375h5.833v-4.375c0-3.18-5.207-5.06-9.232-5.644z" fill="#6E4ABC"/><path d="M13.126 17.5a5.833 5.833 0 100-11.667 5.833 5.833 0 000 11.667z" fill="#6E4ABC"/><path fill-rule="evenodd" clip-rule="evenodd" d="M21.875 17.5a5.832 5.832 0 005.834-5.833 5.832 5.832 0 00-5.834-5.834c-.685 0-1.327.146-1.94.35a8.72 8.72 0 010 10.967c.613.204 1.255.35 1.94.35zM13.126 18.958c-3.894 0-11.667 1.954-11.667 5.834v4.375h23.333v-4.375c0-3.88-7.773-5.834-11.666-5.834z" fill="#6E4ABC"/></svg><svg fill="none" viewBox="0 0 35 35" id="request-quote" xmlns="http://www.w3.org/2000/svg"><path d="M20.417 2.917H8.751a2.913 2.913 0 00-2.902 2.916l-.015 23.334a2.913 2.913 0 002.902 2.916h17.515a2.925 2.925 0 002.916-2.916v-17.5l-8.75-8.75zM21.876 17.5h-5.834v1.458h4.375c.802 0 1.459.657 1.459 1.459v4.375c0 .802-.657 1.458-1.459 1.458H18.96v1.458h-2.917V26.25h-2.916v-2.917h5.833v-1.458h-4.375a1.463 1.463 0 01-1.458-1.458v-4.375c0-.802.656-1.459 1.458-1.459h1.458v-1.458h2.917v1.458h2.917V17.5zm-2.917-5.833V5.104l6.563 6.563h-6.563z" fill="#EFB657"/></svg><svg fill="none" viewBox="0 0 35 35" id="safe" xmlns="http://www.w3.org/2000/svg"><path d="M17.5.78C8.266.78.781 8.267.781 17.5c0 9.233 7.485 16.718 16.72 16.718 9.233 0 16.718-7.485 16.718-16.719C34.219 8.266 26.734.781 17.5.781zm12.237 17.632h-7.758a4.726 4.726 0 11.035-1.644h7.723a.822.822 0 110 1.644z" fill="#3D8A74"/></svg><svg fill="none" viewBox="0 0 18 15" id="twitter" xmlns="http://www.w3.org/2000/svg"><path d="M18 1.981a7.694 7.694 0 01-2.126.583 3.67 3.67 0 001.623-2.04 7.373 7.373 0 01-2.34.894A3.69 3.69 0 008.774 3.94c0 .292.025.574.085.841A10.445 10.445 0 011.253.922a3.696 3.696 0 001.134 4.933A3.645 3.645 0 01.72 5.4v.04a3.707 3.707 0 002.957 3.626 3.683 3.683 0 01-.968.122 3.263 3.263 0 01-.699-.063 3.725 3.725 0 003.449 2.57A7.414 7.414 0 01.883 13.27c-.302 0-.593-.014-.883-.051a10.39 10.39 0 005.661 1.656c6.79 0 10.503-5.625 10.503-10.5 0-.164-.006-.322-.014-.478A7.362 7.362 0 0018 1.981z" fill="currentColor"/></svg><svg fill="none" viewBox="0 0 25 16" id="youtube" xmlns="http://www.w3.org/2000/svg"><g clip-path="url(#kclip0_2_150)"><path class="kyoutube-play" d="M16.3 7.767c-2.243-1.116-4.391-2.142-6.587-3.214v6.41c2.31-1.17 4.747-2.24 6.597-3.196h-.01z"/><path d="M16.3 7.767c-2.243-1.116-6.587-3.214-6.587-3.214l5.792 3.624s-1.055.545.796-.41z" fill="#E8E0E0"/><path d="M10.135 15.98c-4.66-.08-6.252-.152-7.23-.34-.663-.125-1.238-.402-1.66-.803-.326-.304-.585-.768-.786-1.41-.173-.537-.24-.982-.336-2.072-.146-2.458-.181-4.467 0-6.712.15-1.24.223-2.712 1.218-3.571a3.36 3.36 0 011.63-.768c.96-.17 5.044-.303 9.273-.303 4.22 0 8.314.134 9.274.303.767.134 1.486.536 1.908 1.054.908 1.33.924 2.982 1.016 4.276.038.616.038 4.115 0 4.73-.143 2.045-.259 2.768-.585 3.517-.201.474-.373.723-.671 1a3.307 3.307 0 01-1.707.813c-4.033.282-7.458.343-11.344.285zm6.175-8.213c-2.243-1.116-4.392-2.151-6.588-3.222v6.409c2.311-1.17 4.747-2.24 6.598-3.196l-.01.009z" fill="currentColor"/></g><defs><clipPath id="kclip0_2_150"><path fill="#fff" d="M0 0h24.471v16H0z"/></clipPath></defs></svg></svg>